#!OML:ASF G:\ViconDB\ViconDB\414\test\team2\shane.ASF
:FULLY-SPECIFIED
:DEGREES
196
root 8.43329 13.9181 -4.46666 65.6067 367.898 -31.3595
lowerback -30.8185 51.1145 130.885
upperback 0.171999 -13.9499 -8.72198
thorax -2.21429 -9.75713 -17.8054
lowerneck -1.6271 23.9705 -11.5498
upperneck 1.84441 17.5331 -2.56462
head 175.672 -41.1245 2.03468
rclavicle -9.54166e-015 -6.36111e-014
rhumerus -25.5608 38.7865 -39.1199
rradius 41.6686
rwrist -16.0554
rhand -34.3843 -29.604
rfingers 7.12502
rthumb -7.55053 -419.449
lclavicle 7.63333e-014 -8.0309e-014
lhumerus -47.1673 -1.90506 49.5873
lradius 13.3819
lwrist -0.152521
lhand -38.4658 12.2863
lfingers 7.12502
lthumb -11.4885 41.9515
rfemur 46.9995 -143.576 17.5821
rtibia 69.0621
rfoot -30.6163 -13.7128
rtoes -18.5339
lfemur -62.6052 21.2446 106.674
ltibia 46.7956
lfoot -11.0252 -22.1513
ltoes -8.8155
197
root 8.48019 13.9378 -4.31241 65.6046 369.473 -32.8373
lowerback -30.887 50.9123 130.96
upperback 0.225821 -14.1716 -8.77614
thorax -2.2714 -9.8083 -17.8692
lowerneck -1.51022 23.7088 -11.7801
upperneck 1.87632 17.5251 -2.58369
head 175.861 -40.2724 1.74052
rclavicle 4.29375e-014 3.49861e-014
rhumerus -27.9954 40.746 -41.4849
rradius 41.2579
rwrist -16.9742
rhand -34.3754 -29.6585
rfingers 7.12502
rthumb -7.54188 -419.504
lclavicle 7.63333e-014 -8.0309e-014
lhumerus -47.1673 -1.90506 49.5873
lradius 13.3819
lwrist -0.152521
lhand -38.4658 12.2863
lfingers 7.12502
lthumb -11.4885 41.9515
rfemur 47.4568 -142.598 18.1588
rtibia 69.2459
rfoot -30.1972 -14.9737
rtoes -18.0995
lfemur -62.5454 22.1577 107.208
ltibia 47.8028
lfoot -10.8027 -21.9945
ltoes -8.59405
198
root 7.74615 15.3736 -4.87073 68.897 238.995 -53.9113
lowerback 19.5042 0.548526 7.67119
upperback 7.15472 1.65353 2.48714
thorax -2.97516 0.645728 -2.03513
lowerneck -26.4385 8.7536 1.93297
upperneck 6.34501 12.1193 -9.2553
head 6.81619 4.9222 -1.73774
rclavicle -2.22639e-014 -8.26944e-014
rhumerus -19.2915 9.85178 -54.6133
rradius 36.995
rwrist 24.5719
rhand -36.5784 -24.2929
rfingers 7.12502
rthumb -9.66789 -414.051
lclavicle -2.22639e-014 -8.26944e-014
lhumerus -29.7466 -15.767 83.9888
lradius 36.6286
lwrist -13.075
lhand -47.3698 10.5256
lfingers 7.12502
lthumb -20.0627 39.5098
rfemur -54.4015 -34.7032 10.3194
rtibia 72.1285
rfoot -32.2232 -26.5725
rtoes -11.1219
lfemur -2.81111 11.2841 -8.96689
ltibia 48.818
lfoot -15.3323 -5.10265
ltoes -9.41281
199
root 7.7717 15.4516 -4.71291 70.8868 240.184 -56.8198
lowerback 19.0634 0.44649 7.34532
upperback 7.06163 1.45233 2.34394
thorax -2.87651 0.559109 -1.958
lowerneck -26.2201 8.84666 1.7944
upperneck 6.28495 12.3248 -9.47978
head 6.78579 5.00627 -1.76507
rclavicle 6.36111e-015 4.77083e-014
rhumerus -21.0228 9.11027 -55.4098
rradius 36.1286
rwrist 25.3064
rhand -36.6007 -23.9528
rfingers 7.12502
rthumb -9.68944 -413.71
lclavicle 6.36111e-015 4.77083e-014
lhumerus -29.8203 -16.9176 85.6676
lradius 38.2991
lwrist -13.3265
lhand -47.5997 10.536
lfingers 7.12502
lthumb -20.2838 39.4968
rfemur -52.8759 -35.6689 9.33939
rtibia 72.0772
rfoot -32.4152 -27.2176
rtoes -10.5052
lfemur -2.87336 11.7392 -8.3225
ltibia 49.3094
lfoot -15.3061 -5.29454
ltoes -9.73936
200
root 7.79383 15.5345 -4.55722 73.2049 241.459 -60.0316
lowerback 18.817 0.324376 7.09259
upperback 6.93049 1.25975 2.25027
thorax -2.91499 0.470143 -1.87482
lowerneck -26.0451 9.02294 1.90634
upperneck 6.18227 12.575 -9.84915
head 6.77712 5.10413 -1.86874
rclavicle -3.18055e-015 -6.04305e-014
rhumerus -22.7583 8.90176 -56.3043
rradius 35.6285
rwrist 24.4232
rhand -36.4478 -23.5747
rfingers 7.12502
rthumb -9.54184 -413.339
lclavicle -3.18055e-015 -6.04305e-014
lhumerus -29.6287 -17.2147 87.1067
lradius 39.3492
lwrist -14.2333
lhand -47.6305 9.8596
lfingers 7.12502
lthumb -20.3133 38.8173
rfemur -51.2767 -36.6658 8.47195
rtibia 71.9304
rfoot -32.2623 -28.1925
rtoes -10.3076
lfemur -2.99333 12.1923 -7.57911
ltibia 49.5694
lfoot -15.1293 -5.93682
ltoes -8.96292
201
root 7.81375 15.6181 -4.39835 75.858 242.629 -63.6674
lowerback 18.6783 0.21294 6.80114
upperback 6.84532 1.07639 2.19265
thorax -2.95921 0.383074 -1.73455
lowerneck -26.102 9.05095 1.69922
upperneck 6.41084 12.7291 -9.95996
head 6.86762 5.15174 -1.84454
rclavicle -7.31528e-014 -1.20861e-013
rhumerus -24.2453 8.2349 -56.981
rradius 34.7988
rwrist 23.8288
rhand -36.4733 -22.5562
rfingers 7.12502
rthumb -9.56649 -412.319
lclavicle -7.31528e-014 -1.20861e-013
lhumerus -29.2512 -16.6873 88.3576
lradius 39.8355
lwrist -16.7593
lhand -47.7632 9.23062
lfingers 7.12502
lthumb -20.4409 38.1747
rfemur -49.0861 -37.6817 7.29494
rtibia 70.4462
rfoot -31.4599 -28.5942
rtoes -9.36711
lfemur -2.96228 12.6107 -6.9351
ltibia 49.3399
lfoot -15.0486 -6.09847
ltoes -8.83205
202
root 7.83256 15.7042 -4.23474 78.7878 243.544 -67.2518
lowerback 18.2416 0.231969 6.36762
upperback 6.74943 1.02048 2.11324
thorax -2.85279 0.364753 -1.56099
lowerneck -26.1323 9.07302 1.52265
upperneck 6.53159 12.8686 -10.1824
head 6.92927 5.1859 -1.86526
rclavicle -9.54166e-015 0
rhumerus -25.8379 7.98888 -57.7217
rradius 34.434
rwrist 23.2583
rhand -36.2113 -22.8899
rfingers 7.12502
rthumb -9.31366 -412.664
lclavicle -9.54166e-015 0
lhumerus -28.869 -15.797 89.5768
lradius 39.9456
lwrist -20.1134
lhand -48.078 8.827
lfingers 7.12502
lthumb -20.7434 37.7383
rfemur -47.2387 -38.5573 6.18015
rtibia 68.8537
rfoot -30.5682 -28.9439
rtoes -8.55406
lfemur -3.27077 13.2358 -6.60455
ltibia 48.9734
lfoot -15.2519 -6.39201
ltoes -8.65457
203
root 7.85129 15.791 -4.06809 81.7589 244.631 -70.8909
lowerback 17.9676 0.240172 6.25202
upperback 6.73829 1.00329 2.01881
thorax -2.72539 0.3664 -1.59054
lowerneck -26.5288 9.18415 1.65627
upperneck 6.88052 13.0744 -10.5304
head 7.15582 5.22269 -1.94792
rclavicle 3.81667e-014 3.81667e-014
rhumerus -27.2725 7.16235 -58.4736
rradius 34.3489
rwrist 23.3686
rhand -35.6466 -23.0962
rfingers 7.12502
rthumb -8.76881 -412.894
lclavicle 3.81667e-014 3.81667e-014
lhumerus -28.4909 -15.3728 90.74
lradius 40.1829
lwrist -22.3698
lhand -48.4327 8.78188
lfingers 7.12502
lthumb -21.0841 37.6556
rfemur -45.2924 -39.4685 5.35549
rtibia 67.1394
rfoot -29.5211 -29.3115
rtoes -8.16292
lfemur -3.59421 13.8901 -6.06143
ltibia 48.4767
lfoot -15.7371 -6.47558
ltoes -8.76122
204
root 7.86931 15.8822 -3.9053 85.6022 245.464 -75.4788
lowerback 17.7767 0.16173 5.93839
upperback 6.7172 0.850068 1.99577
thorax -2.66827 0.295047 -1.40765
lowerneck -26.9109 9.07188 1.51062
upperneck 7.16431 13.0461 -10.7756
head 7.32054 5.15045 -1.99465
rclavicle 3.49861e-014 1.90833e-014
rhumerus -28.5209 6.79615 -59.0786
rradius 33.9084
rwrist 23.5386
rhand -35.7083 -22.5311
rfingers 7.12502
rthumb -8.8283 -412.326
lclavicle 3.49861e-014 1.90833e-014
lhumerus -28.5375 -15.1769 92.0156
lradius 40.7344
lwrist -23.6793
lhand -49.1003 8.80349
lfingers 7.12502
lthumb -21.7253 37.6044
rfemur -43.0383 -40.5603 4.2443
rtibia 65.3077
rfoot -28.4877 -29.9441
rtoes -7.57986
lfemur -4.0243 14.1917 -5.87221
ltibia 47.8626
lfoot -16.3363 -6.17724
ltoes -8.93527
205
root 7.87856 15.9687 -3.73084 88.5305 246.399 -79.0541
lowerback 17.4746 0.256682 5.98185
upperback 6.82466 0.955608 1.92093
thorax -2.38597 0.360579 -1.52843
lowerneck -27.3062 9.13184 1.50423
upperneck 7.38279 13.1993 -11.0286
head 7.48554 5.16956 -2.03771
rclavicle -3.02153e-014 -3.81667e-014
rhumerus -29.7708 6.31577 -59.7909
rradius 33.7749
rwrist 24.0336
rhand -35.6117 -22.5558
rfingers 7.12502
rthumb -8.73511 -412.355
lclavicle -3.02153e-014 -3.81667e-014
lhumerus -28.5421 -15.2436 93.2007
lradius 40.9911
lwrist -25.2594
lhand -49.7308 9.25037
lfingers 7.12502
lthumb -22.3307 37.9799
rfemur -40.821 -41.1373 3.38083
rtibia 63.3764
rfoot -27.6376 -30.2859
rtoes -7.06474
lfemur -4.34188 15.0923 -5.47121
ltibia 47.1663
lfoot -16.6156 -6.46662
ltoes -8.21801
